<svg width="51" height="58" viewBox="0 0 51 58" fill="none" xmlns="http://www.w3.org/2000/svg">
<g clip-path="url(#clip0_3_53)" filter="url(#filter0_d_3_53)">
<path d="M22.0056 37.2278L25.1389 40.3611L36.25 29.25L25.1389 18.1389L22.0056 21.2722L27.7389 27.0278H6.25V31.4722H27.7389L22.0056 37.2278ZM41.8056 9.25H10.6944C8.22778 9.25 6.25 11.25 6.25 13.6944V22.5833H10.6944V13.6944H41.8056V44.8056H10.6944V35.9167H6.25V44.8056C6.25 47.25 8.22778 49.25 10.6944 49.25H41.8056C44.25 49.25 46.25 47.25 46.25 44.8056V13.6944C46.25 11.25 44.25 9.25 41.8056 9.25Z" fill="#B85526"/>
</g>
<defs>
<filter id="filter0_d_3_53" x="-4" y="0" width="58" height="58" filterUnits="userSpaceOnUse" color-interpolation-filters="sRGB">
<feFlood flood-opacity="0" result="BackgroundImageFix"/>
<feColorMatrix in="SourceAlpha" type="matrix" values="0 0 0 0 0 0 0 0 0 0 0 0 0 0 0 0 0 0 127 0" result="hardAlpha"/>
<feOffset dy="4"/>
<feGaussianBlur stdDeviation="2"/>
<feColorMatrix type="matrix" values="0 0 0 0 0 0 0 0 0 0 0 0 0 0 0 0 0 0 0.1 0"/>
<feBlend mode="normal" in2="BackgroundImageFix" result="effect1_dropShadow_3_53"/>
<feBlend mode="normal" in="SourceGraphic" in2="effect1_dropShadow_3_53" result="shape"/>
</filter>
<clipPath id="clip0_3_53">
<rect width="50" height="50" fill="white"/>
</clipPath>
</defs>
</svg>
